<svg width="17" height="20" viewBox="0 0 17 20" fill="none" xmlns="http://www.w3.org/2000/svg">
<path d="M13.8435 2.78946L13.8435 2.78937C12.3776 1.32351 10.3895 0.5 8.31641 0.5C6.24337 0.5 4.25524 1.32351 2.78937 2.78937C1.32351 4.25524 0.5 6.24337 0.5 8.31641C0.5 10.3895 1.32351 12.3776 2.78937 13.8435L5.8884 16.9425C5.91245 16.9665 5.941 16.9856 5.97241 16.9986C6.00383 17.0116 6.0375 17.0183 6.07151 17.0183C6.10552 17.0183 6.13919 17.0116 6.1706 16.9986C6.20202 16.9856 6.23057 16.9665 6.25462 16.9425C6.27867 16.9184 6.29774 16.8899 6.31075 16.8585L6.77269 17.0498L6.31075 16.8585C6.32376 16.8271 6.33046 16.7934 6.33046 16.7594C6.33046 16.7254 6.32376 16.6917 6.31075 16.6603L6.77269 16.4689L6.31075 16.6603C6.29774 16.6289 6.27866 16.6003 6.25462 16.5763L3.15581 13.4775L13.8435 2.78946ZM13.8435 2.78946C14.5696 3.51515 15.1455 4.37677 15.5384 5.3251C15.9314 6.27343 16.1336 7.2899 16.1336 8.31641C16.1336 9.34293 15.9314 10.3594 15.5384 11.3077C15.1455 12.2561 14.5696 13.1177 13.8435 13.8434L13.8435 13.8435L8.49952 19.1874L8.49808 19.1888C8.47429 19.2128 8.44599 19.2319 8.41481 19.2448C8.38363 19.2578 8.35019 19.2645 8.31641 19.2645C8.28264 19.2645 8.2492 19.2578 8.21801 19.2448C8.18684 19.2319 8.15854 19.2128 8.13475 19.1888L8.13185 19.1859C8.10787 19.1622 8.08884 19.1339 8.07585 19.1027L7.6143 19.295M13.8435 2.78946L7.6143 19.295M7.6143 19.295L8.07585 19.1027C8.06286 19.0715 8.05617 19.0381 8.05617 19.0043C8.05617 18.9705 8.06286 18.9371 8.07585 18.9059C8.08884 18.8747 8.10787 18.8464 8.13186 18.8226L8.13331 18.8212L13.477 13.4775L7.6143 19.295ZM1.15466 9.73846C1.43715 11.1552 2.13349 12.4563 3.15559 13.4772H13.4772C14.4993 12.4563 15.1957 11.1552 15.4782 9.73846C15.7607 8.32162 15.6166 6.85282 15.0641 5.51789C14.5117 4.18296 13.5757 3.04189 12.3745 2.23905C11.1734 1.43621 9.76115 1.00769 8.31641 1.00769C6.87168 1.00769 5.45941 1.43621 4.25828 2.23905C3.05716 3.04189 2.12115 4.18296 1.56869 5.51789C1.01623 6.85282 0.872143 8.32162 1.15466 9.73846Z" stroke="black"/>
</svg>
